<?xml version="1.0" encoding="UTF-8"?>
<svg version="1.1" xmlns="http://www.w3.org/2000/svg" width="256" height="256">
<path d="M0 0 C1.47893486 -0.01029488 1.47893486 -0.01029488 2.98774719 -0.02079773 C6.24336187 -0.03908255 9.49849543 -0.03522571 12.75415039 -0.02954102 C15.01949724 -0.03410201 17.28484271 -0.03940733 19.55018616 -0.04542542 C24.29718651 -0.05435985 29.04401865 -0.05192951 33.79101562 -0.04199219 C39.87194057 -0.03050244 45.95228485 -0.05071291 52.03313351 -0.07990932 C56.71118351 -0.09826213 61.38909413 -0.09798065 66.0671711 -0.0922718 C68.30904518 -0.09211848 70.55092864 -0.09817221 72.79276848 -0.11056328 C75.92862164 -0.12545354 79.06339907 -0.11480987 82.19921875 -0.09765625 C83.1235672 -0.10732422 84.04791565 -0.11699219 85.00027466 -0.12695312 C90.53529226 -0.06360589 93.81620668 0.63872813 98.16430664 4.40405273 C100.8851578 8.84810962 101.30406443 11.96104016 101.23461914 17.15014648 C101.22446777 18.1355542 101.21431641 19.12096191 101.20385742 20.13623047 C101.19080566 20.88461182 101.17775391 21.63299316 101.16430664 22.40405273 C101.94555908 22.38834229 102.72681152 22.37263184 103.53173828 22.35644531 C107.09668643 22.29380034 110.66151842 22.25496785 114.22680664 22.21655273 C115.45592773 22.19141602 116.68504883 22.1662793 117.95141602 22.14038086 C127.8828273 22.06007295 133.8309441 23.23735753 141.16430664 30.40405273 C143.6116764 34.55301975 144.54054264 37.6005748 144.55198669 42.40014648 C144.56189133 43.57770508 144.57179596 44.75526367 144.58200073 45.96850586 C144.57749908 47.24661133 144.57299744 48.5247168 144.56835938 49.84155273 C144.57406657 51.21200109 144.58103218 52.5824447 144.5891571 53.95288086 C144.60706368 57.66362274 144.60592511 61.37412783 144.60021472 65.0848999 C144.59711973 68.18634232 144.60321865 71.28773945 144.60925347 74.38917542 C144.62328838 81.706673 144.62174559 89.02405381 144.61035156 96.34155273 C144.59886649 103.88409099 144.61295469 111.42627383 144.63974804 118.96876526 C144.66191464 125.45217896 144.66854042 131.93548116 144.66267163 138.41893005 C144.6593037 142.28791825 144.66170622 146.15667853 144.67892265 150.02563477 C144.69440563 153.66359376 144.69042191 157.30102653 144.67161751 160.93896484 C144.66618333 162.90585145 144.68043476 164.87276176 144.6953125 166.83959961 C144.63047056 174.60389957 144.04562454 178.49487849 138.53149414 184.04858398 C132.33553091 188.8983039 128.37090662 188.58691579 120.66430664 188.59155273 C119.5930957 188.60379883 118.52188477 188.61604492 117.41821289 188.62866211 C116.39598633 188.6305957 115.37375977 188.6325293 114.32055664 188.63452148 C113.38018555 188.63863037 112.43981445 188.64273926 111.47094727 188.64697266 C109.16430664 188.40405273 109.16430664 188.40405273 107.16430664 186.40405273 C104.73178003 185.94242846 104.73178003 185.94242846 102.03930664 185.77905273 C101.12922852 185.70428711 100.21915039 185.62952148 99.28149414 185.55249023 C98.23348633 185.47901367 98.23348633 185.47901367 97.16430664 185.40405273 C96.83430664 186.39405273 96.50430664 187.38405273 96.16430664 188.40405273 C90.88430664 188.40405273 85.60430664 188.40405273 80.16430664 188.40405273 C79.83430664 187.74405273 79.50430664 187.08405273 79.16430664 186.40405273 C76.80831429 185.93653486 76.80831429 185.93653486 74.10180664 185.77905273 C73.18270508 185.70428711 72.26360352 185.62952148 71.31665039 185.55249023 C70.25124023 185.47901367 70.25124023 185.47901367 69.16430664 185.40405273 C68.83430664 186.39405273 68.50430664 187.38405273 68.16430664 188.40405273 C55.22961187 188.49674593 42.29499616 188.56781458 29.36003685 188.61130142 C23.35375611 188.63217328 17.34770266 188.6604842 11.34155273 188.70581055 C5.54493603 188.74928171 -0.25146208 188.77319286 -6.04822922 188.78356171 C-8.25942806 188.79095072 -10.47061498 188.8053797 -12.68172073 188.82697296 C-15.77969436 188.85602313 -18.87676553 188.86000797 -21.97485352 188.8581543 C-22.88835571 188.8725354 -23.80185791 188.8869165 -24.74304199 188.9017334 C-31.34481228 188.85900957 -34.73533783 187.48231547 -39.48022461 182.77124023 C-42.90067418 178.40130131 -43.95951234 176.40968163 -43.98959351 170.9024353 C-43.99819397 169.73326569 -44.00679443 168.56409607 -44.01565552 167.35949707 C-44.01991547 166.07015259 -44.02417542 164.78080811 -44.02856445 163.45239258 C-44.03646508 162.08578279 -44.044734 160.71917508 -44.05334473 159.35256958 C-44.0795779 154.8567301 -44.09487748 150.36088126 -44.10913086 145.86499023 C-44.11449074 144.31676859 -44.11986825 142.768547 -44.12526321 141.22032547 C-44.14689727 134.77792099 -44.16563207 128.33551902 -44.1768856 121.89308739 C-44.1931107 112.66534201 -44.22624698 103.43801868 -44.28328645 94.21043241 C-44.32203318 87.72029951 -44.34152409 81.23027925 -44.34680617 74.74003375 C-44.35045431 70.86522797 -44.36241673 66.99087219 -44.39490891 63.11619186 C-44.42507204 59.46676372 -44.43127267 55.81805585 -44.41952515 52.16852951 C-44.41920057 50.19954417 -44.4436135 48.23060274 -44.46890259 46.26177979 C-44.41796783 38.99926005 -43.70642033 33.97323239 -38.83569336 28.40405273 C-34.09442823 23.78435851 -29.48824787 22.29951529 -22.96069336 22.27905273 C-21.58542914 22.31082451 -20.21022534 22.34907146 -18.83569336 22.40405273 C-18.88209961 21.70280273 -18.92850586 21.00155273 -18.97631836 20.27905273 C-19.21736834 13.94288174 -19.00986118 8.47524802 -14.83569336 3.40405273 C-10.16900163 -0.33376002 -5.70594824 -0.02772769 0 0 Z " fill="#FBCB1A" transform="translate(77.835693359375,33.595947265625)"/>
<path d="M0 0 C1.47893486 -0.01029488 1.47893486 -0.01029488 2.98774719 -0.02079773 C6.24336187 -0.03908255 9.49849543 -0.03522571 12.75415039 -0.02954102 C15.01949724 -0.03410201 17.28484271 -0.03940733 19.55018616 -0.04542542 C24.29718651 -0.05435985 29.04401865 -0.05192951 33.79101562 -0.04199219 C39.87194057 -0.03050244 45.95228485 -0.05071291 52.03313351 -0.07990932 C56.71118351 -0.09826213 61.38909413 -0.09798065 66.0671711 -0.0922718 C68.30904518 -0.09211848 70.55092864 -0.09817221 72.79276848 -0.11056328 C75.92862164 -0.12545354 79.06339907 -0.11480987 82.19921875 -0.09765625 C83.1235672 -0.10732422 84.04791565 -0.11699219 85.00027466 -0.12695312 C90.53529226 -0.06360589 93.81620668 0.63872813 98.16430664 4.40405273 C100.8851578 8.84810962 101.30406443 11.96104016 101.23461914 17.15014648 C101.22446777 18.1355542 101.21431641 19.12096191 101.20385742 20.13623047 C101.19080566 20.88461182 101.17775391 21.63299316 101.16430664 22.40405273 C101.94555908 22.38834229 102.72681152 22.37263184 103.53173828 22.35644531 C107.09668643 22.29380034 110.66151842 22.25496785 114.22680664 22.21655273 C115.45592773 22.19141602 116.68504883 22.1662793 117.95141602 22.14038086 C127.8828273 22.06007295 133.8309441 23.23735753 141.16430664 30.40405273 C143.6116764 34.55301975 144.54054264 37.6005748 144.55198669 42.40014648 C144.56189133 43.57770508 144.57179596 44.75526367 144.58200073 45.96850586 C144.57749908 47.24661133 144.57299744 48.5247168 144.56835938 49.84155273 C144.57406657 51.21200109 144.58103218 52.5824447 144.5891571 53.95288086 C144.60706368 57.66362274 144.60592511 61.37412783 144.60021472 65.0848999 C144.59711973 68.18634232 144.60321865 71.28773945 144.60925347 74.38917542 C144.62328838 81.706673 144.62174559 89.02405381 144.61035156 96.34155273 C144.59886649 103.88409099 144.61295469 111.42627383 144.63974804 118.96876526 C144.66191464 125.45217896 144.66854042 131.93548116 144.66267163 138.41893005 C144.6593037 142.28791825 144.66170622 146.15667853 144.67892265 150.02563477 C144.69440563 153.66359376 144.69042191 157.30102653 144.67161751 160.93896484 C144.66618333 162.90585145 144.68043476 164.87276176 144.6953125 166.83959961 C144.63047056 174.60389957 144.04562454 178.49487849 138.53149414 184.04858398 C134.26707401 187.38644162 132.31015572 188.53122773 126.93774414 188.50170898 C125.90649414 188.49848633 124.87524414 188.49526367 123.81274414 188.49194336 C122.73250977 188.48356445 121.65227539 188.47518555 120.53930664 188.46655273 C118.90735352 188.45978516 118.90735352 188.45978516 117.24243164 188.45288086 C114.54966875 188.4410705 111.85701476 188.42460052 109.16430664 188.40405273 C108.50430664 187.08405273 107.84430664 185.76405273 107.16430664 184.40405273 C108.04711914 182.43139648 108.04711914 182.43139648 110.16430664 180.40405273 C114.31836274 179.70575014 118.56228784 179.9464212 122.76196289 180.00366211 C123.6346582 179.99270508 124.50735352 179.98174805 125.40649414 179.97045898 C126.19910645 179.98020752 126.99171875 179.98995605 127.80834961 180 C131.40987402 179.08898227 132.84297962 177.25867419 135.16430664 174.40405273 C135.65528068 171.64078085 135.84109352 169.4946773 135.79541016 166.73974609 C135.80256546 165.98466263 135.80972076 165.22957916 135.8170929 164.45161438 C135.83395029 161.96508592 135.8145986 159.48036789 135.79321289 156.99389648 C135.79404178 155.26184439 135.79650194 153.52979238 135.80052185 151.79774475 C135.80337769 148.17205053 135.78869853 144.5469748 135.76123047 140.92138672 C135.72712214 136.27501714 135.73317613 131.62975149 135.75189304 126.98332882 C135.76246243 123.40848087 135.75352629 119.8338897 135.73850822 116.25906563 C135.73332719 114.54586105 135.73380728 112.83262966 135.74005318 111.11942863 C135.74550586 108.72535406 135.72513199 106.33285934 135.69775391 103.93896484 C135.70427979 103.23184357 135.71080566 102.52472229 135.7175293 101.7961731 C135.65245667 98.4486797 135.37956607 96.68492083 133.31846619 93.99562073 C129.66271373 91.29462367 126.62420185 91.27288494 122.21166992 91.24633789 C120.37428757 91.23094467 120.37428757 91.23094467 118.49978638 91.21524048 C117.84572941 91.21180256 117.19167244 91.20836464 116.51779556 91.20482254 C114.46618332 91.19300908 112.41477928 91.17355023 110.36325073 91.15170288 C104.53089349 91.09016896 98.69855859 91.03606532 92.8659668 91.00268555 C89.296165 90.98170731 85.72674496 90.94638069 82.15716171 90.90192795 C80.79928971 90.88779396 79.4413502 90.87905137 78.08340836 90.87587357 C76.18076673 90.87094968 74.27820821 90.84615495 72.37573242 90.82055664 C70.75382492 90.80842636 70.75382492 90.80842636 69.09915161 90.79605103 C64.8887053 90.23367455 62.16785872 88.70349241 59.57446289 85.34545898 C59.12973633 84.56041992 58.68500977 83.77538086 58.22680664 82.96655273 C57.72536133 82.08999023 57.22391602 81.21342773 56.70727539 80.31030273 C54.55682585 76.25983575 52.57811543 72.13397178 50.65649414 67.97045898 C49.00366304 65.12776256 47.99769163 64.04354953 45.16430664 62.40405273 C41.76652502 61.93465468 41.76652502 61.93465468 37.90478516 61.98413086 C37.18071472 61.97566132 36.45664429 61.96719177 35.71063232 61.95846558 C33.32131298 61.93510024 30.93263776 61.93407324 28.54321289 61.93530273 C26.87938683 61.92820091 25.21556322 61.92050188 23.55174255 61.91223145 C20.06567577 61.89878779 16.57983545 61.89721732 13.09375 61.90307617 C8.63009137 61.90897268 4.16752027 61.87838325 -0.295928 61.83795929 C-3.73181495 61.81208839 -7.1674398 61.80920427 -10.60341072 61.81285095 C-12.24883826 61.81115916 -13.89427783 61.80151078 -15.53960991 61.78370667 C-17.84273587 61.76152671 -20.14365783 61.77121071 -22.44677734 61.78881836 C-23.75597641 61.78676392 -25.06517548 61.78470947 -26.41404724 61.78259277 C-29.92037971 62.19253922 -29.92037971 62.19253922 -32.75805664 64.2980957 C-35.74310436 68.76058419 -35.52991053 72.45325272 -35.46679688 77.71459961 C-35.47395218 78.75093033 -35.48110748 79.78726105 -35.48847961 80.85499573 C-35.50537787 84.27804749 -35.48595613 87.69979174 -35.46459961 91.12280273 C-35.4654282 93.50264596 -35.46788719 95.88248913 -35.47190857 98.2623291 C-35.47476737 103.24903599 -35.46005659 108.23529394 -35.43261719 113.22192383 C-35.39853501 119.61462199 -35.40455225 126.00651726 -35.42327976 132.39925385 C-35.43384723 137.31319878 -35.42491407 142.22695684 -35.40989494 147.1408844 C-35.40471086 149.49800563 -35.40519765 151.85514635 -35.4114399 154.21226501 C-35.41688878 157.50643902 -35.39652576 160.79946288 -35.36914062 164.09350586 C-35.3756665 165.06820328 -35.38219238 166.0429007 -35.38891602 167.0471344 C-35.33210379 171.0652899 -35.09991206 173.83841861 -33.38427734 177.51121521 C-29.54857125 180.36000044 -26.18952342 180.07832697 -21.52490234 180 C-20.58304077 180.00405853 -19.6411792 180.00811707 -18.67077637 180.01229858 C-16.62733895 180.01781659 -14.58384531 180.01180516 -12.5404644 179.99563789 C-9.30863899 179.97027734 -6.07809264 179.97499587 -2.84620667 179.98753357 C4.01160445 180.00830259 10.86902144 179.98857501 17.72680664 179.96655273 C25.67593534 179.94547707 33.6246546 179.94081716 41.57377434 179.96705437 C44.76208256 179.97042606 47.94961652 179.94915648 51.13783264 179.926651 C53.08619355 179.92916133 55.03455349 179.93272042 56.98291016 179.9375 C57.87286179 179.92461441 58.76281342 179.91172882 59.67973328 179.89845276 C65.61572097 179.947186 65.61572097 179.947186 68.30064392 182.18321228 C69.31559386 184.79307587 68.94222823 185.7904773 68.16430664 188.40405273 C55.22961187 188.49674593 42.29499616 188.56781458 29.36003685 188.61130142 C23.35375611 188.63217328 17.34770266 188.6604842 11.34155273 188.70581055 C5.54493603 188.74928171 -0.25146208 188.77319286 -6.04822922 188.78356171 C-8.25942806 188.79095072 -10.47061498 188.8053797 -12.68172073 188.82697296 C-15.77969436 188.85602313 -18.87676553 188.86000797 -21.97485352 188.8581543 C-22.88835571 188.8725354 -23.80185791 188.8869165 -24.74304199 188.9017334 C-31.34481228 188.85900957 -34.73533783 187.48231547 -39.48022461 182.77124023 C-42.90067418 178.40130131 -43.95951234 176.40968163 -43.98959351 170.9024353 C-43.99819397 169.73326569 -44.00679443 168.56409607 -44.01565552 167.35949707 C-44.01991547 166.07015259 -44.02417542 164.78080811 -44.02856445 163.45239258 C-44.03646508 162.08578279 -44.044734 160.71917508 -44.05334473 159.35256958 C-44.0795779 154.8567301 -44.09487748 150.36088126 -44.10913086 145.86499023 C-44.11449074 144.31676859 -44.11986825 142.768547 -44.12526321 141.22032547 C-44.14689727 134.77792099 -44.16563207 128.33551902 -44.1768856 121.89308739 C-44.1931107 112.66534201 -44.22624698 103.43801868 -44.28328645 94.21043241 C-44.32203318 87.72029951 -44.34152409 81.23027925 -44.34680617 74.74003375 C-44.35045431 70.86522797 -44.36241673 66.99087219 -44.39490891 63.11619186 C-44.42507204 59.46676372 -44.43127267 55.81805585 -44.41952515 52.16852951 C-44.41920057 50.19954417 -44.4436135 48.23060274 -44.46890259 46.26177979 C-44.41796783 38.99926005 -43.70642033 33.97323239 -38.83569336 28.40405273 C-34.09442823 23.78435851 -29.48824787 22.29951529 -22.96069336 22.27905273 C-21.58542914 22.31082451 -20.21022534 22.34907146 -18.83569336 22.40405273 C-18.88209961 21.70280273 -18.92850586 21.00155273 -18.97631836 20.27905273 C-19.21736834 13.94288174 -19.00986118 8.47524802 -14.83569336 3.40405273 C-10.16900163 -0.33376002 -5.70594824 -0.02772769 0 0 Z " fill="#130C4E" transform="translate(77.835693359375,33.595947265625)"/>
<path d="M0 0 C0.82437561 -0.00845947 1.64875122 -0.01691895 2.49810791 -0.02563477 C3.39898132 -0.01956207 4.29985474 -0.01348938 5.22802734 -0.00723267 C6.17949646 -0.01248962 7.13096558 -0.01774658 8.11126709 -0.02316284 C11.2623324 -0.03638716 14.41289423 -0.02761603 17.56396484 -0.01748657 C19.74967547 -0.0195066 21.93538544 -0.02241745 24.12109375 -0.02618408 C28.70432953 -0.03061074 33.28739004 -0.02416529 37.87060547 -0.01016235 C43.75226797 0.00692959 49.63351981 -0.00290975 55.51516724 -0.02087975 C60.0292471 -0.03170829 64.54322924 -0.02827549 69.05731201 -0.02049637 C71.22629851 -0.01849179 73.39529381 -0.02096262 75.56427002 -0.02793503 C78.59305403 -0.0355341 81.62116835 -0.02396671 84.64990234 -0.00723267 C85.55077576 -0.01330536 86.45164917 -0.01937805 87.37982178 -0.02563477 C88.20419739 -0.01717529 89.028573 -0.00871582 89.87792969 0 C90.59395355 0.00113108 91.30997742 0.00226215 92.04769897 0.00342751 C94.52613052 0.4981575 95.41896306 1.39246644 96.93896484 3.38095093 C97.27954102 6.2918396 97.27954102 6.2918396 97.23193359 9.79891968 C97.22226563 11.05253296 97.21259766 12.30614624 97.20263672 13.5977478 C97.1775 14.90807983 97.15236328 16.21841187 97.12646484 17.56845093 C97.11141452 18.90372256 97.09772671 20.2390103 97.08544922 21.5743103 C97.05004178 24.84359669 97.00065375 28.11207185 96.93896484 31.38095093 C95.47437332 31.38308846 95.47437332 31.38308846 93.98019409 31.38526917 C84.7695295 31.40195323 75.55930593 31.44476974 66.34887505 31.5130415 C61.61386684 31.54730311 56.87918099 31.57242018 52.14404297 31.57650757 C47.57257957 31.58079231 43.00184326 31.60926934 38.43060684 31.65438271 C36.6883887 31.66735213 34.94608353 31.67166734 33.20382309 31.66710472 C30.75911122 31.66219451 28.31652101 31.68830617 25.87207031 31.7215271 C25.15493362 31.71290146 24.43779694 31.70427582 23.69892883 31.69538879 C18.06694637 31.82332806 15.74285246 33.51158815 11.93896484 37.38095093 C10.82838963 39.76564354 10.82838963 39.76564354 10.56396484 42.19345093 C10.25458984 44.26626343 10.25458984 44.26626343 9.93896484 46.38095093 C4.32896484 46.38095093 -1.28103516 46.38095093 -7.06103516 46.38095093 C-7.13512492 40.31204917 -7.18960875 34.24340996 -7.22583008 28.17416382 C-7.24092787 26.10901301 -7.26140789 24.04389432 -7.28735352 21.97885132 C-7.3236931 19.01254354 -7.34075146 16.04665922 -7.35400391 13.08016968 C-7.36948776 12.15508102 -7.38497162 11.22999237 -7.40092468 10.27687073 C-7.40126457 8.98587212 -7.40126457 8.98587212 -7.40161133 7.66879272 C-7.40827316 6.91156418 -7.414935 6.15433563 -7.42179871 5.37416077 C-6.66290296 1.1812802 -3.97480016 0.00627885 0 0 Z " fill="#9A018F" transform="translate(74.06103515625,41.619049072265625)"/>
<path d="M0 0 C3.10770423 2.38155765 5.58571162 4.92410375 8 8 C8.45375 8.55945313 8.9075 9.11890625 9.375 9.6953125 C13.60018796 16.23848553 13.06579663 25.51924502 12 33 C10.82142067 36.75468355 9.2371424 39.77721805 7 43 C6.401875 43.928125 5.80375 44.85625 5.1875 45.8125 C-1.08720343 52.08720343 -8.34478938 55.28336569 -17.1875 55.375 C-25.69456541 55.32628752 -32.41779939 53.66720205 -38.8125 47.875 C-45.80322729 40.23973756 -48.39305385 31.48041601 -48.26953125 21.3515625 C-47.55395543 12.45353278 -42.49097399 5.86774642 -36 0 C-24.70323669 -7.42884979 -11.50771513 -6.71283382 0 0 Z " fill="#131050" transform="translate(110,137)"/>
<path d="M0 0 C0.82582077 -0.00701431 1.65164154 -0.01402863 2.50248718 -0.02125549 C3.40493164 -0.01361176 4.3073761 -0.00596802 5.23716736 0.00190735 C6.66678047 -0.00356865 6.66678047 -0.00356865 8.12527466 -0.00915527 C11.28116068 -0.01727306 14.43653528 -0.00364127 17.59239197 0.01094055 C19.78049723 0.01145897 21.96860296 0.01094199 24.15670776 0.00942993 C28.74414516 0.00951971 33.331407 0.01996101 37.91880798 0.03804016 C43.80947003 0.0607408 49.69987574 0.06126957 55.5905695 0.05452251 C60.1088897 0.05118704 64.62715107 0.05780444 69.14546013 0.06765175 C71.31806061 0.07151032 73.49066762 0.07264926 75.66327095 0.0710659 C78.69454124 0.07069655 81.72547821 0.08327853 84.75669861 0.0995636 C85.6611673 0.09708618 86.56563599 0.09460876 87.49751282 0.09205627 C93.70349442 0.1454805 93.70349442 0.1454805 95.93223572 2.3742218 C96.10733957 5.02713937 96.16379054 7.57408354 96.12754822 10.2257843 C96.12471832 10.99981598 96.12188843 11.77384766 96.11897278 12.57133484 C96.10776325 15.04745337 96.08265774 17.5232123 96.05723572 19.9992218 C96.04720689 21.67629992 96.03808087 23.35338369 96.02989197 25.0304718 C96.00782146 29.14519403 95.97328673 33.25964692 95.93223572 37.3742218 C89.1696706 37.47560855 82.40730132 37.54568151 75.64414978 37.59394836 C73.34329402 37.61406868 71.04248943 37.64136814 68.74180603 37.67597961 C65.43536255 37.72447792 62.12959486 37.74718659 58.82286072 37.7648468 C57.79356445 37.78549194 56.76426819 37.80613708 55.70378113 37.82740784 C48.59146539 37.82964455 48.59146539 37.82964455 45.39732361 35.6230011 C43.98100773 33.44908249 42.71462359 31.34653274 41.60020447 29.00312805 C40.99015564 27.77046204 40.99015564 27.77046204 40.36778259 26.51289368 C39.53950263 24.80318904 38.7190998 23.08964456 37.90684509 21.37226868 C37.29099548 20.13766907 37.29099548 20.13766907 36.66270447 18.87812805 C36.30587585 18.13377502 35.94904724 17.389422 35.58140564 16.62251282 C32.22761183 12.05033115 28.61789811 9.65809075 23.01646423 8.71479797 C21.61518455 8.67432986 20.21298423 8.65939927 18.81114197 8.66719055 C18.06638107 8.65206924 17.32162018 8.63694794 16.55429077 8.62136841 C14.20079152 8.57875176 11.84858108 8.56967968 9.49473572 8.5617218 C7.88858228 8.53855691 6.28245904 8.51318744 4.67637634 8.48554993 C0.7615502 8.42295624 -3.15248245 8.39041771 -7.06776428 8.3742218 C-7.43430182 3.85359213 -7.43430182 3.85359213 -5.8102808 1.72964191 C-3.68791877 0.07875817 -2.66362913 -0.00062287 0 0 Z " fill="#FB3968" transform="translate(98.06776428222656,79.62577819824219)"/>
<path d="M0 0 C4.52061442 -0.11668418 9.04083847 -0.18741645 13.5625 -0.25 C14.83931641 -0.28351562 16.11613281 -0.31703125 17.43164062 -0.3515625 C29.57043247 -0.47767982 29.57043247 -0.47767982 35 4 C39.04878733 8.78487621 38.38273027 14.05126488 38.29296875 19.98828125 C38.28872391 21.04661667 38.28447906 22.10495209 38.28010559 23.19535828 C38.26334362 26.56800012 38.22569512 29.94003945 38.1875 33.3125 C38.17244999 35.6022049 38.15876214 37.89191918 38.14648438 40.18164062 C38.11344823 45.7879652 38.06327317 51.39393954 38 57 C37.34 56.71125 36.68 56.4225 36 56.125 C32.37500535 54.76562701 28.76653307 53.89375361 25 53 C24.9906543 51.97116699 24.98130859 50.94233398 24.97167969 49.88232422 C24.93165231 46.04644288 24.86585946 42.21135288 24.79248047 38.37597656 C24.76434438 36.71950486 24.7430933 35.06290073 24.72900391 33.40625 C24.70747109 31.01754324 24.66077245 28.63041614 24.609375 26.2421875 C24.60814636 25.50757294 24.60691772 24.77295837 24.60565186 24.01608276 C24.46151244 18.89721945 23.19637355 15.96531247 20 12 C16.45421806 9.26878959 12.06275859 9.55787316 7.75 9.375 C7.00492188 9.33632812 6.25984375 9.29765625 5.4921875 9.2578125 C3.6618476 9.16394892 1.83095857 9.08090282 0 9 C0 6.03 0 3.06 0 0 Z " fill="#EF7E2E" transform="translate(177,64)"/>
<path d="M0 0 C1.18929388 0.71357633 2.35908118 1.4613839 3.5 2.25 C4.428125 2.889375 5.35625 3.52875 6.3125 4.1875 C11.64319468 9.21358355 12.65514267 14.35978527 12.875 21.4375 C12.86042737 27.89317326 11.2507884 32.0658746 7.5 37.25 C6.84 37.25 6.18 37.25 5.5 37.25 C4.03515625 34.56445312 4.03515625 34.56445312 2.5703125 31.87890625 C1.58589976 30.08381685 1.58589976 30.08381685 -0.5 29.25 C1.375 24.375 1.375 24.375 2.5 23.25 C2.62535652 21.64951798 2.67574787 20.04284072 2.6875 18.4375 C2.70167969 17.56480469 2.71585938 16.69210938 2.73046875 15.79296875 C2.35490434 11.6490292 1.07293285 9.76563957 -2 7 C-6.62630355 4.68684823 -10.41845958 4.28483729 -15.5 5.25 C-18.6961229 6.90700634 -20.74679916 9.22290794 -22.875 12.125 C-24.21890443 16.69427507 -24.03459251 20.20137624 -21.875 24.4375 C-20.5 27.25 -20.5 27.25 -21.0625 29.25 C-21.7740625 30.24 -21.7740625 30.24 -22.5 31.25 C-23.20125 32.3225 -23.9025 33.395 -24.625 34.5 C-25.553125 35.86125 -25.553125 35.86125 -26.5 37.25 C-30.71519216 33.36758617 -33.13605692 30.41205093 -33.80078125 24.63671875 C-33.83644617 16.4218994 -32.94692522 10.54096168 -27.1875 4.4375 C-19.63914209 -2.40759475 -9.5591808 -4.59785693 0 0 Z " fill="#F4EDC7" transform="translate(102.5,140.75)"/>
<path d="M0 0 C0 7.92 0 15.84 0 24 C-4.83398438 24.29296875 -4.83398438 24.29296875 -9.66796875 24.5859375 C-12.79959117 24.97509574 -15.15285809 25.6809851 -18 27 C-18.11667875 23.77113991 -18.18740546 20.54282555 -18.25 17.3125 C-18.28351562 16.40048828 -18.31703125 15.48847656 -18.3515625 14.54882812 C-18.41415794 10.24539166 -18.44110448 7.72857642 -16.171875 3.98046875 C-10.28921449 -1.38375585 -9.90761081 0 0 0 Z " fill="#F7822D" transform="translate(60,64)"/>
<path d="M0 0 C1.34782814 0.00213753 1.34782814 0.00213753 2.72288513 0.00431824 C3.74056473 0.00124161 4.75824432 -0.00183502 5.8067627 -0.00500488 C7.45991737 0.00577339 7.45991737 0.00577339 9.14646912 0.01676941 C10.27326584 0.01722763 11.40006256 0.01768585 12.56100464 0.01815796 C14.94586743 0.0211828 17.33072819 0.02907595 19.71556091 0.04142761 C23.38075195 0.05967934 27.04569052 0.06193739 30.71092224 0.06169128 C33.0227734 0.06660643 35.33462284 0.07243474 37.64646912 0.07926941 C38.75059647 0.08038223 39.85472382 0.08149506 40.99230957 0.0826416 C42.51410072 0.09221138 42.51410072 0.09221138 44.06663513 0.10197449 C44.96439163 0.10578629 45.86214813 0.10959808 46.78710938 0.11352539 C48.83006287 0.24723816 48.83006287 0.24723816 49.83006287 1.24723816 C49.95506287 3.74723816 49.95506287 3.74723816 49.83006287 6.24723816 C48.83006287 7.24723816 48.83006287 7.24723816 46.73568726 7.36749268 C45.81413345 7.36527206 44.89257965 7.36305145 43.94309998 7.36076355 C42.90209641 7.36068802 41.86109283 7.36061249 40.7885437 7.36053467 C39.65626846 7.35537338 38.52399323 7.3502121 37.35740662 7.34489441 C36.20462723 7.34347946 35.05184784 7.34206451 33.86413574 7.34060669 C30.16525223 7.33498821 26.46642823 7.32243258 22.76756287 7.30973816 C20.2669127 7.30472554 17.76626158 7.30016222 15.26560974 7.29606628 C9.12040698 7.28501278 2.97523917 7.26825668 -3.16993713 7.24723816 C-3.79493713 4.87223816 -3.79493713 4.87223816 -4.16993713 2.24723816 C-2.16993713 0.24723816 -2.16993713 0.24723816 0 0 Z " fill="#14104C" transform="translate(145.16993713378906,169.7527618408203)"/>
<path d="M0 0 C1.34782814 0.00213753 1.34782814 0.00213753 2.72288513 0.00431824 C3.74056473 0.00124161 4.75824432 -0.00183502 5.8067627 -0.00500488 C7.45991737 0.00577339 7.45991737 0.00577339 9.14646912 0.01676941 C10.27326584 0.01722763 11.40006256 0.01768585 12.56100464 0.01815796 C14.94586743 0.0211828 17.33072819 0.02907595 19.71556091 0.04142761 C23.38075195 0.05967934 27.04569052 0.06193739 30.71092224 0.06169128 C33.0227734 0.06660643 35.33462284 0.07243474 37.64646912 0.07926941 C38.75059647 0.08038223 39.85472382 0.08149506 40.99230957 0.0826416 C42.51410072 0.09221138 42.51410072 0.09221138 44.06663513 0.10197449 C44.96439163 0.10578629 45.86214813 0.10959808 46.78710938 0.11352539 C48.83006287 0.24723816 48.83006287 0.24723816 49.83006287 1.24723816 C49.95506287 3.74723816 49.95506287 3.74723816 49.83006287 6.24723816 C48.83006287 7.24723816 48.83006287 7.24723816 46.73568726 7.36749268 C45.81413345 7.36527206 44.89257965 7.36305145 43.94309998 7.36076355 C42.90209641 7.36068802 41.86109283 7.36061249 40.7885437 7.36053467 C39.65626846 7.35537338 38.52399323 7.3502121 37.35740662 7.34489441 C36.20462723 7.34347946 35.05184784 7.34206451 33.86413574 7.34060669 C30.16525223 7.33498821 26.46642823 7.32243258 22.76756287 7.30973816 C20.2669127 7.30472554 17.76626158 7.30016222 15.26560974 7.29606628 C9.12040698 7.28501278 2.97523917 7.26825668 -3.16993713 7.24723816 C-3.79493713 4.87223816 -3.79493713 4.87223816 -4.16993713 2.24723816 C-2.16993713 0.24723816 -2.16993713 0.24723816 0 0 Z " fill="#14104C" transform="translate(145.16993713378906,146.7527618408203)"/>
<path d="M0 0 C3.375 1.5625 3.375 1.5625 6 4 C6.875 7.75 6.875 7.75 7 11 C3.48262679 12.17245774 0.6424868 12.13266285 -3.0625 12.125 C-4.31160156 12.12757813 -5.56070313 12.13015625 -6.84765625 12.1328125 C-10 12 -10 12 -12 11 C-12.46233492 7.0239197 -12.30954571 5.43148796 -9.9375 2.125 C-6.2249847 -0.56064937 -4.49760469 -0.71014811 0 0 Z " fill="#EF7E2E" transform="translate(95,173)"/>
<path d="M0 0 C2.375 1.625 2.375 1.625 4 4 C4.61195145 7.6717087 4.48706506 9.28813568 2.375 12.375 C0 14 0 14 -3 14.5625 C-6 14 -6 14 -8.375 11.8125 C-10.14232156 8.75367423 -10.70698088 7.44653179 -10 4 C-7.16979976 -0.02759265 -4.82432618 -0.80405436 0 0 Z " fill="#EF7E2E" transform="translate(95,152)"/>
<path d="M0 0 C3.1875 -0.3984375 3.1875 -0.3984375 7 -0.375 C8.8871875 -0.38660156 8.8871875 -0.38660156 10.8125 -0.3984375 C11.864375 -0.26695312 12.91625 -0.13546875 14 0 C14.66 0.99 15.32 1.98 16 3 C15.67 4.32 15.34 5.64 15 7 C9.72 7 4.44 7 -1 7 C-1.33 5.68 -1.66 4.36 -2 3 C-1.34 2.01 -0.68 1.02 0 0 Z " fill="#0A074E" transform="translate(159,215)"/>
</svg>
